<svg width="50" height="51" viewBox="0 0 50 51" fill="none" xmlns="http://www.w3.org/2000/svg">
<path d="M50 46.6151C50 48.7725 48.2512 50.5214 46.0938 50.5214H3.90625C1.74883 50.5214 0 48.7725 0 46.6151V4.42761C0 2.27019 1.74883 0.521362 3.90625 0.521362H46.0938C48.2512 0.521362 50 2.27019 50 4.42761V46.6151Z" fill="#FFE812"/>
<path d="M25 7.55261C13.7816 7.55261 4.6875 14.7231 4.6875 23.5682C4.6875 29.2868 8.48945 34.3046 14.2086 37.138C13.8975 38.211 12.2092 44.0411 12.142 44.4991C12.142 44.4991 12.1016 44.8432 12.3244 44.9745C12.5473 45.1057 12.8094 45.0038 12.8094 45.0038C13.4484 44.9145 20.2201 40.1579 21.3922 39.3319C22.5631 39.4977 23.7687 39.5839 25 39.5839C36.2184 39.5839 45.3125 32.4135 45.3125 23.5682C45.3125 14.7231 36.2184 7.55261 25 7.55261Z" fill="black"/>
<path d="M13.7695 29.1591C13.1232 29.1591 12.5977 28.6571 12.5977 28.0399V21.078H10.7691C10.135 21.078 9.61914 20.5632 9.61914 19.9305C9.61914 19.2979 10.1352 18.7831 10.7691 18.7831H16.7699C17.4041 18.7831 17.9199 19.2979 17.9199 19.9305C17.9199 20.5632 17.4039 21.078 16.7699 21.078H14.9414V28.0399C14.9414 28.6571 14.4158 29.1591 13.7695 29.1591ZM24.0453 29.1438C23.5566 29.1438 23.1828 28.9454 23.0701 28.6262L22.4898 27.1071L18.9164 27.1069L18.3357 28.627C18.2234 28.9456 17.8498 29.1438 17.3611 29.1438C17.1041 29.1441 16.85 29.0889 16.6162 28.9821C16.2932 28.8331 15.9826 28.4233 16.3385 27.318L19.1416 19.9399C19.3391 19.3788 19.9389 18.8007 20.7021 18.7833C21.4676 18.8005 22.0674 19.3788 22.2652 19.9411L25.0672 27.3159C25.4238 28.4237 25.1133 28.8337 24.7902 28.9823C24.5564 29.0889 24.3023 29.144 24.0453 29.1438C24.0453 29.1438 24.0451 29.1438 24.0453 29.1438ZM21.8736 25.0313L20.7031 21.7061L19.5326 25.0313H21.8736ZM26.9531 28.9882C26.3338 28.9882 25.8301 28.5061 25.8301 27.9139V19.955C25.8301 19.3087 26.3668 18.7831 27.0264 18.7831C27.6859 18.7831 28.2227 19.3087 28.2227 19.955V26.8397H30.7129C31.3322 26.8397 31.8359 27.3218 31.8359 27.9139C31.8359 28.5061 31.3322 28.9882 30.7129 28.9882H26.9531ZM33.4637 29.1438C32.8174 29.1438 32.2918 28.6182 32.2918 27.9719V19.955C32.2918 19.3087 32.8174 18.7831 33.4637 18.7831C34.11 18.7831 34.6355 19.3087 34.6355 19.955V22.4737L37.9051 19.2042C38.0732 19.036 38.3043 18.9434 38.5551 18.9434C38.8477 18.9434 39.1414 19.0696 39.3615 19.2895C39.5668 19.4946 39.6893 19.7585 39.7061 20.0325C39.723 20.3089 39.6311 20.5622 39.4475 20.746L36.777 23.4161L39.6615 27.2376C39.7547 27.3602 39.8225 27.5 39.8611 27.6491C39.8998 27.7981 39.9084 27.9533 39.8865 28.1057C39.8656 28.2582 39.8147 28.4051 39.7366 28.5377C39.6586 28.6704 39.555 28.7863 39.4318 28.8786C39.2292 29.0326 38.9815 29.1157 38.727 29.1151C38.5454 29.116 38.3661 29.0743 38.2036 28.9934C38.041 28.9125 37.8996 28.7946 37.7908 28.6493L35.0426 25.0079L34.6359 25.4145V27.9714C34.6356 28.2822 34.512 28.5802 34.2922 28.7999C34.0724 29.0197 33.7745 29.1434 33.4637 29.1438Z" fill="#FFE812"/>
</svg>
