<svg width="8" height="13" viewBox="0 0 8 13" fill="none" xmlns="http://www.w3.org/2000/svg">
<path d="M0.641663 12.634C0.474996 12.4673 0.391663 12.27 0.391663 12.042C0.391663 11.8145 0.474996 11.6173 0.641663 11.4507L5.525 6.56734L0.624996 1.66734C0.46944 1.51179 0.391663 1.31734 0.391663 1.08401C0.391663 0.850675 0.474996 0.650675 0.641663 0.484009C0.808329 0.317342 1.00566 0.234009 1.23366 0.234009C1.46122 0.234009 1.65833 0.317342 1.825 0.484009L7.425 6.10068C7.49166 6.16734 7.539 6.23956 7.567 6.31734C7.59455 6.39512 7.60833 6.47845 7.60833 6.56734C7.60833 6.65623 7.59455 6.73956 7.567 6.81734C7.539 6.89512 7.49166 6.96734 7.425 7.03401L1.80833 12.6507C1.65277 12.8062 1.46122 12.884 1.23366 12.884C1.00566 12.884 0.808329 12.8007 0.641663 12.634Z" fill="#6044F8"/>
</svg>
