<svg width="296" height="109" viewBox="0 0 296 109" fill="none" xmlns="http://www.w3.org/2000/svg">
<path d="M12.6 3.14101C12.6 4.54101 12.6 5.86101 12.12 7.70101L13.72 7.88101C14.22 6.04101 14.22 4.58101 14.22 3.14101V1.62101H2V2.94101H12.6V3.14101ZM8.1 17.341C5.3 17.341 3.5 16.581 3.5 15.341C3.5 14.061 5.3 13.301 8.1 13.301C10.92 13.301 12.72 14.061 12.72 15.341C12.72 16.581 10.92 17.341 8.1 17.341ZM8.1 12.041C4.28 12.041 1.86 13.261 1.86 15.341C1.86 17.381 4.28 18.621 8.1 18.621C11.92 18.621 14.36 17.381 14.36 15.341C14.36 13.261 11.92 12.041 8.1 12.041ZM8.36 9.06101V5.62101H6.72V9.06101H0.1V10.401H16.24V9.06101H8.36ZM24.8584 3.90101H29.0784V2.54101H19.0584V3.90101H23.2184V6.18101C23.2184 9.28101 21.0384 12.661 18.4584 13.881L19.4184 15.201C21.4584 14.161 23.2184 11.901 24.0384 9.28101C24.8984 11.741 26.6584 13.801 28.7384 14.761L29.6584 13.441C27.0184 12.321 24.8584 9.22101 24.8584 6.18101V3.90101ZM31.4984 0.72101V18.641H33.1384V0.72101H31.4984ZM42.8769 2.26101H41.2569V5.48101C41.2569 8.74101 39.2169 12.181 36.6369 13.501L37.6169 14.821C39.6369 13.741 41.2969 11.501 42.0769 8.88101C42.8969 11.341 44.5169 13.441 46.4169 14.461L47.4369 13.161C44.9169 11.901 42.8769 8.64101 42.8769 5.48101V2.26101ZM53.6169 7.98101H50.6569V0.72101H49.0169V18.641H50.6569V9.34101H53.6169V7.98101ZM65.8953 2.72101H61.4153V0.54101H59.7753V2.72101H55.3153V4.04101H65.8953V2.72101ZM57.8753 8.10101C57.8753 6.94101 58.9753 6.18101 60.5953 6.18101C62.2353 6.18101 63.3353 6.94101 63.3353 8.10101C63.3353 9.28101 62.2353 10.041 60.5953 10.041C58.9753 10.041 57.8753 9.28101 57.8753 8.10101ZM64.8953 8.10101C64.8953 6.18101 63.1553 4.94101 60.5953 4.94101C58.0353 4.94101 56.3153 6.18101 56.3153 8.10101C56.3153 10.041 58.0353 11.281 60.5953 11.281C63.1553 11.281 64.8953 10.041 64.8953 8.10101ZM63.5553 17.361C60.9353 17.361 59.3353 16.681 59.3353 15.521C59.3353 14.361 60.9353 13.681 63.5553 13.681C66.1753 13.681 67.7753 14.361 67.7753 15.521C67.7753 16.681 66.1753 17.361 63.5553 17.361ZM63.5553 12.421C59.9353 12.421 57.7153 13.541 57.7153 15.521C57.7153 17.481 59.9353 18.621 63.5553 18.621C67.1553 18.621 69.3953 17.481 69.3953 15.521C69.3953 13.541 67.1553 12.421 63.5553 12.421ZM69.1753 5.68101V0.70101H67.5353V12.241H69.1753V7.04101H71.8353V5.68101H69.1753Z" fill="black"/>
<path d="M269.943 5.22101V7.36101H272.823V13.901H275.463V0.46101H272.823V5.22101H269.943ZM271.163 9.46101C268.263 8.48101 267.003 6.22101 267.003 4.04101V3.80101H270.583V1.70101H260.683V3.80101H264.303V4.06101C264.303 6.38101 262.983 8.80101 259.963 9.78101L261.283 11.881C263.443 11.161 264.883 9.70101 265.703 7.88101C266.483 9.54101 267.863 10.861 269.883 11.521L271.163 9.46101ZM265.963 16.461V12.781H263.323V18.561H275.883V16.461H265.963ZM284.182 5.66101H287.002V3.54101H284.182V1.06101H281.682V3.54101H278.802V5.66101H281.682V6.04101C281.682 8.88101 280.742 11.901 278.122 13.441L279.602 15.421C281.262 14.461 282.342 12.821 282.962 10.901C283.622 12.661 284.682 14.121 286.302 14.981L287.722 13.021C285.122 11.641 284.182 8.82101 284.182 6.04101V5.66101ZM288.042 7.42101H285.942V9.56101H288.042V18.041H290.502V0.76101H288.042V7.42101ZM291.762 0.44101V18.861H294.262V0.44101H291.762Z" fill="black"/>
<path d="M8.77501 93.261L0.350012 84.861C0.250012 84.761 0.179346 84.6527 0.138012 84.536C0.0960122 84.4193 0.0750122 84.2943 0.0750122 84.161C0.0750122 84.0277 0.0960122 83.9027 0.138012 83.786C0.179346 83.6693 0.250012 83.561 0.350012 83.461L8.77501 75.036C9.00835 74.8027 9.30001 74.686 9.65001 74.686C10 74.686 10.3 74.811 10.55 75.061C10.8 75.311 10.925 75.6027 10.925 75.936C10.925 76.2693 10.8 76.561 10.55 76.811L3.20001 84.161L10.55 91.511C10.7833 91.7443 10.9 92.0317 10.9 92.373C10.9 92.715 10.775 93.011 10.525 93.261C10.275 93.511 9.98335 93.636 9.65001 93.636C9.31668 93.636 9.02501 93.511 8.77501 93.261Z" fill="#5F43F8"/>
<path d="M89.0004 63.141C89.0004 64.541 89.0004 65.861 88.5204 67.701L90.1204 67.881C90.6204 66.041 90.6204 64.581 90.6204 63.141V61.621H78.4004V62.941H89.0004V63.141ZM84.5004 77.341C81.7004 77.341 79.9004 76.581 79.9004 75.341C79.9004 74.061 81.7004 73.301 84.5004 73.301C87.3204 73.301 89.1204 74.061 89.1204 75.341C89.1204 76.581 87.3204 77.341 84.5004 77.341ZM84.5004 72.041C80.6804 72.041 78.2604 73.261 78.2604 75.341C78.2604 77.381 80.6804 78.621 84.5004 78.621C88.3204 78.621 90.7604 77.381 90.7604 75.341C90.7604 73.261 88.3204 72.041 84.5004 72.041ZM84.7604 69.061V65.621H83.1204V69.061H76.5004V70.401H92.6404V69.061H84.7604ZM107.519 64.281C107.519 66.441 107.519 68.961 106.839 72.401L108.479 72.581C109.159 68.961 109.159 66.501 109.159 64.281V62.501H96.5788V63.841H107.519V64.281ZM102.819 74.781V68.361H101.179V74.781H94.8788V76.121H111.099V74.781H102.819ZM127.977 60.701H126.337V69.901H127.977V60.701ZM115.257 65.341C115.257 63.781 116.557 62.681 118.297 62.681C120.057 62.681 121.337 63.781 121.337 65.341C121.337 66.881 120.057 67.981 118.297 67.981C116.557 67.981 115.257 66.881 115.257 65.341ZM122.937 65.341C122.937 62.961 120.977 61.341 118.297 61.341C115.617 61.341 113.677 62.961 113.677 65.341C113.677 67.701 115.617 69.301 118.297 69.301C120.977 69.301 122.937 67.701 122.937 65.341ZM118.017 77.101V75.121H127.977V70.781H116.357V72.081H126.357V73.901H116.397V78.401H128.577V77.101H118.017ZM141.236 65.361V66.701H144.776V71.401H146.436V60.721H144.776V65.361H141.236ZM142.236 69.441C139.636 68.521 137.876 66.261 137.876 63.961V63.341H141.816V62.021H132.236V63.341H136.236V63.961C136.236 66.541 134.396 68.961 131.716 69.941L132.576 71.241C134.676 70.441 136.336 68.761 137.096 66.681C137.876 68.521 139.416 70.001 141.416 70.721L142.236 69.441ZM140.516 77.361C137.816 77.361 136.176 76.601 136.176 75.301C136.176 74.001 137.816 73.221 140.516 73.221C143.216 73.221 144.856 74.001 144.856 75.301C144.856 76.601 143.216 77.361 140.516 77.361ZM140.516 71.961C136.836 71.961 134.536 73.181 134.536 75.301C134.536 77.421 136.836 78.641 140.516 78.641C144.196 78.641 146.476 77.421 146.476 75.301C146.476 73.181 144.196 71.961 140.516 71.961ZM158.154 62.241C161.094 62.241 162.774 62.921 162.774 64.121C162.774 65.321 161.094 66.001 158.154 66.001C155.214 66.001 153.534 65.321 153.534 64.121C153.534 62.921 155.214 62.241 158.154 62.241ZM158.154 67.221C162.094 67.221 164.454 66.141 164.454 64.121C164.454 62.101 162.094 61.001 158.154 61.001C154.214 61.001 151.854 62.101 151.854 64.121C151.854 66.141 154.214 67.221 158.154 67.221ZM153.654 75.341H164.194V71.301H151.994V72.541H162.574V74.141H152.054V78.441H164.734V77.161H153.654V75.341ZM150.034 68.441V69.761H166.274V68.441H150.034ZM184.145 65.921C181.585 65.381 179.805 63.881 179.805 62.041V61.141H178.105V62.041C178.105 63.961 176.345 65.581 173.745 66.181L174.465 67.441C176.605 66.901 178.225 65.701 178.965 64.121C179.745 65.601 181.365 66.701 183.425 67.181L184.145 65.921ZM178.305 72.421H179.945V69.741C181.565 69.661 183.205 69.501 184.805 69.241L184.685 68.041C180.765 68.561 176.325 68.561 172.965 68.561L173.165 69.921C174.705 69.921 176.485 69.921 178.305 69.841V72.421ZM185.905 77.081H177.385V75.101H185.905V77.081ZM185.905 73.821H177.385V71.901H175.745V78.401H187.525V71.901H185.905V73.821ZM185.885 60.721V71.021H187.525V60.721H185.885ZM201.264 68.041H198.164C198.764 66.441 199.024 64.741 199.024 62.981H192.104V64.321H197.404C197.104 68.081 195.184 71.301 191.344 73.601L192.304 74.781C194.784 73.301 196.504 71.441 197.584 69.361H201.264V77.741H202.824V61.181H201.264V68.041ZM205.004 60.701V78.641H206.564V60.701H205.004ZM211.262 72.741H212.522L212.762 64.261L212.822 62.181H210.962L211.022 64.261L211.262 72.741ZM211.882 77.421C212.622 77.421 213.202 76.861 213.202 76.041C213.202 75.221 212.622 74.621 211.882 74.621C211.162 74.621 210.562 75.221 210.562 76.041C210.562 76.861 211.162 77.421 211.882 77.421ZM99.8577 96.161H102.218V100.141H103.798V90.721H102.218V94.821H99.8577V91.041H98.2977V100.001H99.8577V96.161ZM89.6577 91.721V93.041H94.9977C94.9377 93.681 94.7977 94.281 94.5777 94.861L88.8177 95.241L89.0777 96.561L93.9777 96.061C92.9977 97.561 91.3377 98.821 88.8977 99.701L89.6377 100.901C94.4377 99.081 96.6377 95.941 96.6377 91.721H89.6577ZM93.6177 107.121V105.181H103.798V100.981H91.9577V102.261H102.178V103.961H91.9977V108.401H104.478V107.121H93.6177ZM121.756 90.721H120.116V103.921H121.756V90.721ZM117.976 99.441C115.216 99.921 112.876 100.041 109.596 100.041V97.161H116.096V91.981H107.936V93.301H114.476V95.921H107.996V101.381H109.436C112.876 101.381 115.276 101.261 118.136 100.781L117.976 99.441ZM111.696 106.901V102.901H110.056V108.241H122.256V106.901H111.696ZM127.995 93.761H134.515V92.401H126.355V104.241H127.735C131.135 104.241 133.295 104.121 135.895 103.641L135.695 102.281C133.275 102.741 131.175 102.861 127.995 102.861V93.761ZM138.595 90.701V97.201H133.455V98.561H138.595V108.681H140.235V90.701H138.595ZM154.686 107.421C158.366 107.421 160.946 104.481 160.946 99.781C160.946 95.081 158.366 92.221 154.686 92.221C151.006 92.221 148.426 95.081 148.426 99.781C148.426 104.481 151.006 107.421 154.686 107.421ZM154.686 105.801C152.046 105.801 150.326 103.441 150.326 99.781C150.326 96.101 152.046 93.841 154.686 93.841C157.306 93.841 159.046 96.101 159.046 99.781C159.046 103.441 157.306 105.801 154.686 105.801ZM164.109 107.161H165.969V101.341H168.389C171.589 101.341 173.789 99.901 173.789 96.801C173.789 93.601 171.589 92.501 168.289 92.501H164.109V107.161ZM165.969 99.841V94.001H168.069C170.649 94.001 171.949 94.681 171.949 96.801C171.949 98.901 170.729 99.841 168.149 99.841H165.969ZM176.746 107.161H185.426V105.581H178.606V100.241H184.166V98.661H178.606V94.061H185.206V92.501H176.746V107.161ZM188.504 107.161H190.264V99.461C190.264 97.921 190.124 96.361 190.044 94.881H190.124L191.704 97.901L197.044 107.161H198.944V92.501H197.184V100.121C197.184 101.641 197.324 103.281 197.424 104.761H197.324L195.764 101.741L190.424 92.501H188.504V107.161ZM203.538 102.741H204.798L205.038 94.261L205.098 92.181H203.238L203.298 94.261L203.538 102.741ZM204.158 107.421C204.898 107.421 205.478 106.861 205.478 106.041C205.478 105.221 204.898 104.621 204.158 104.621C203.438 104.621 202.838 105.221 202.838 106.041C202.838 106.861 203.438 107.421 204.158 107.421Z" fill="black"/>
<path d="M284.65 93.261C284.4 93.011 284.275 92.715 284.275 92.373C284.275 92.0317 284.4 91.736 284.65 91.486L291.975 84.161L284.625 76.811C284.392 76.5777 284.275 76.286 284.275 75.936C284.275 75.586 284.4 75.286 284.65 75.036C284.9 74.786 285.196 74.661 285.538 74.661C285.879 74.661 286.175 74.786 286.425 75.036L294.825 83.461C294.925 83.561 294.996 83.6693 295.038 83.786C295.079 83.9027 295.1 84.0277 295.1 84.161C295.1 84.2943 295.079 84.4193 295.038 84.536C294.996 84.6527 294.925 84.761 294.825 84.861L286.4 93.286C286.167 93.5193 285.879 93.636 285.538 93.636C285.196 93.636 284.9 93.511 284.65 93.261Z" fill="#5F43F8"/>
</svg>
